<svg version="1.0" xmlns="http://www.w3.org/2000/svg" width="1469.000000ptpx" height="678.000000ptpx" viewBox="0 0 1469.000000 678.000000" preserveAspectRatio="xMidYMid meet" transform="rotate(0) scale(1, 1)">

<g transform="translate(0.000000,678.000000) scale(0.100000,-0.100000)" fill="#848282" stroke="none">
<path d="M2943 6540 c-12 -5 -28 -18 -35 -30 -7 -11 -23 -20 -35 -20 -37 0&#10;-76 -54 -195 -267 -42 -75 -75 -180 -94 -299 -17 -103 -17 -104 -53 -121 -46&#10;-23 -86 -84 -108 -164 -20 -72 -23 -255 -9 -494 16 -265 -27 -476 -174 -845&#10;-92 -232 -110 -337 -70 -414 10 -22 17 -42 15 -46 -12 -19 -232 -165 -301&#10;-199 -146 -73 -419 -203 -469 -223 -33 -13 -89 -23 -165 -29 -172 -12 -256&#10;-49 -305 -134 -22 -37 -43 -54 -112 -92 -112 -63 -229 -157 -298 -240 -130&#10;-157 -220 -322 -250 -460 -23 -105 -43 -404 -34 -501 10 -97 52 -228 100 -309&#10;51 -86 161 -192 247 -236 70 -37 239 -87 295 -87 24 0 27 4 28 38 4 79 8 109&#10;23 172 32 127 96 294 185 484 l51 109 43 -7 c23 -4 46 -11 50 -15 5 -5 -3 -31&#10;-17 -59 -36 -71 -84 -219 -97 -302 -23 -137 33 -269 134 -316 52 -24 111 -32&#10;121 -15 7 11 -6 22 -69 56 -63 35 -83 52 -102 89 -22 42 -11 154 26 258 37&#10;107 110 271 123 279 6 4 23 3 39 -3 54 -19 387 10 550 47 58 14 139 38 180 55&#10;41 17 112 45 159 61 47 17 144 61 215 97 114 59 141 78 216 152 118 117 153&#10;188 158 319 4 108 -13 156 -75 210 -74 66 -227 118 -411 141 -48 6 -110 16&#10;-138 21 -83 17 -511 -5 -750 -40 -33 -4 -60 -8 -60 -7 0 1 -17 36 -38 78 -22&#10;43 -51 88 -67 101 l-28 24 76 22 c80 23 363 153 550 252 l113 60 30 -22 c16&#10;-11 55 -30 87 -42 54 -21 73 -22 337 -21 154 1 386 5 515 11 292 11 402 4 589&#10;-42 181 -45 250 -51 354 -35 72 11 89 10 137 -4 89 -27 196 -31 264 -12 57 17&#10;60 17 110 -5 69 -30 184 -37 259 -15 85 25 105 66 69 138 l-18 35 48 18 c54&#10;19 68 37 68 88 0 90 -132 251 -269 327 -34 19 -68 40 -76 47 -19 18 -209 88&#10;-304 112 -135 34 -244 44 -391 38 l-135 -6 78 34 c173 75 355 237 527 470 174&#10;234 324 485 318 532 -3 24 -8 28 -41 31 -76 6 -262 -78 -363 -164 -29 -25 -54&#10;-44 -54 -40 0 14 85 217 140 334 62 133 71 171 45 192 -9 7 -13 21 -10 30 8&#10;27 -20 43 -74 42 -67 -2 -358 -49 -456 -74 -44 -11 -125 -42 -181 -68 -82 -40&#10;-111 -60 -157 -110 -32 -34 -57 -66 -57 -71 0 -5 28 14 63 42 146 123 407 203&#10;727 224 83 5 84 5 47 -10 -59 -22 -158 -97 -209 -157 -94 -110 -139 -209 -152&#10;-330 -9 -78 8 -95 19 -21 16 110 80 218 194 330 66 65 180 143 209 143 19 0 8&#10;-29 -55 -140 -29 -52 -79 -160 -110 -240 -104 -267 -114 -282 -383 -562 -106&#10;-109 -188 -198 -183 -198 10 0 201 167 292 254 60 57 174 191 214 250 53 79&#10;224 202 359 258 96 40 138 52 138 39 0 -16 -187 -320 -262 -425 -167 -236&#10;-285 -355 -473 -476 -66 -42 -133 -89 -148 -104 -16 -14 -38 -26 -51 -26 -83&#10;0 -417 -78 -702 -164 -223 -68 -220 -64 51 49 88 37 203 90 255 116 95 49 181&#10;111 169 124 -14 13 -110 -21 -239 -85 -74 -37 -229 -111 -345 -165 -115 -54&#10;-245 -115 -288 -136 -42 -22 -103 -51 -135 -64 l-57 -25 35 31 c162 142 465&#10;344 801 532 59 33 152 107 145 114 -9 9 -205 -89 -331 -164 -159 -96 -271&#10;-172 -434 -295 -155 -118 -157 -103 -4 43 168 161 343 293 553 419 136 82 270&#10;168 270 174 0 3 -19 -1 -42 -8 -174 -55 -308 -130 -537 -299 l-95 -70 36 49&#10;c78 109 248 363 287 432 24 41 62 117 86 170 24 54 81 165 127 248 124 223&#10;150 318 151 549 0 176 -21 284 -79 402 -54 109 -133 189 -235 239 -68 34 -167&#10;50 -206 34z m102 -71 c59 -52 150 -182 184 -262 90 -218 111 -413 67 -627 -67&#10;-325 -134 -486 -328 -777 -59 -90 -110 -163 -112 -163 -3 0 6 33 20 73 43 125&#10;103 356 129 491 39 209 48 323 42 520 -5 185 -15 254 -66 481 -57 253 -60 269&#10;-49 282 20 24 75 15 113 -18z m-464 -815 c5 -55 16 -135 24 -179 32 -181 47&#10;-368 42 -515 -10 -235 -48 -374 -190 -682 -74 -162 -224 -408 -248 -408 -15 0&#10;-22 50 -16 119 6 69 41 180 102 320 134 314 172 528 161 921 -7 257 1 345 39&#10;436 15 37 64 98 72 90 2 -2 8 -48 14 -102z m1119 -1593 c184 -32 434 -96 552&#10;-142 302 -117 566 -285 520 -331 -21 -21 -132 -12 -206 16 -75 28 -97 27 -161&#10;-9 -55 -31 -102 -37 -182 -25 -71 11 -137 41 -458 208 -250 131 -419 176 -650&#10;174 -155 -1 -288 -20 -521 -77 -169 -41 -318 -67 -304 -53 3 3 59 33 125 66&#10;141 70 413 154 595 183 163 26 512 21 690 -10z m-2386 -732 c47 -23 101 -98&#10;110 -152 l6 -35 -145 -7 c-176 -9 -263 -4 -276 16 -21 34 4 111 53 156 49 46&#10;182 58 252 22z m-380 -204 c15 -35 67 -75 99 -75 39 0 12 -17 -60 -39 -251&#10;-73 -456 -228 -581 -437 -59 -99 -60 -82 -1 44 88 190 227 348 414 470 60 40&#10;111 72 112 72 2 0 9 -16 17 -35z m1409 5 c123 -10 264 -43 328 -75 35 -19 94&#10;-77 120 -119 41 -68 18 -164 -68 -276 -146 -191 -347 -322 -661 -431 -63 -21&#10;-126 -42 -141 -45 -102 -23 -198 -34 -344 -40 -162 -7 -167 -7 -160 12 10 28&#10;58 115 213 387 112 196 86 182 314 174 151 -5 239 -22 319 -63 23 -12 27 -12&#10;27 -1 0 31 -85 79 -170 95 -176 35 -233 39 -303 23 -20 -5 -39 -6 -42 -2 -2 4&#10;22 37 54 73 85 96 104 158 47 158 -67 0 -102 -29 -198 -162 -67 -95 -71 -98&#10;-108 -98 -21 0 -67 -9 -101 -20 -35 -10 -65 -17 -67 -15 -2 2 8 40 22 86 14&#10;45 33 123 42 172 8 50 17 94 20 98 6 10 49 17 219 39 290 38 450 45 638 30z&#10;m-921 -97 c4 -20 -44 -262 -62 -318 -10 -30 -23 -41 -99 -80 -162 -83 -273&#10;-228 -258 -336 6 -49 48 -105 93 -126 19 -9 34 -19 34 -23 0 -3 -24 -62 -54&#10;-131 -62 -145 -161 -415 -175 -479 -6 -25 -11 -78 -11 -117 0 -40 -3 -73 -8&#10;-73 -4 0 -41 9 -81 20 -243 68 -408 227 -480 465 -29 93 -36 201 -22 321 16&#10;138 28 186 70 284 93 216 252 378 469 477 116 52 285 100 382 107 47 3 101 10&#10;120 15 56 14 78 13 82 -6z m122 -400 c-15 -27 -31 -52 -35 -58 -15 -22 -108&#10;-206 -154 -307 -37 -81 -54 -108 -68 -108 -21 0 -77 27 -77 38 0 8 118 333&#10;146 400 16 39 22 44 73 58 31 8 61 17 66 19 6 2 25 4 43 4 l33 1 -27 -47z&#10;m-249 -80 c-9 -21 -42 -99 -72 -173 -30 -74 -57 -139 -60 -143 -7 -11 -51 31&#10;-69 65 -12 22 -11 34 2 80 27 91 53 126 133 180 42 27 77 45 79 40 2 -6 -4&#10;-27 -13 -49z"/>
<path d="M3785 5221 c-17 -10 -53 -43 -80 -74 -52 -58 -140 -195 -131 -204 8&#10;-8 163 134 218 200 67 81 64 122 -7 78z"/>
<path d="M3845 5043 c-48 -12 -252 -192 -227 -200 21 -8 241 139 264 175 19&#10;30 19 32 1 31 -10 -1 -27 -4 -38 -6z"/>
<path d="M3856 4895 c-61 -32 -236 -189 -236 -212 0 -23 21 -14 84 35 33 26&#10;84 62 111 80 53 33 115 89 115 103 0 14 -42 10 -74 -6z"/>
<path d="M4652 3373 c-101 -34 -213 -157 -215 -236 -1 -44 35 -90 88 -112 81&#10;-34 332 -38 416 -7 13 5 37 12 53 16 l29 7 -7 -78 c-3 -43 -15 -116 -27 -163&#10;-11 -47 -22 -92 -24 -100 -23 -106 -208 -572 -242 -612 -8 -9 -27 -19 -41 -23&#10;-59 -15 -176 -109 -259 -208 -68 -81 -85 -187 -44 -267 56 -108 59 -81 -24&#10;-246 -80 -159 -110 -234 -94 -234 6 0 16 6 23 13 15 15 123 205 151 264 11 24&#10;24 43 29 43 10 0 82 -46 103 -67 72 -67 514 -90 758 -39 341 72 407 91 560&#10;165 94 46 142 78 225 147 213 180 278 272 288 405 4 64 3 70 -39 144 -46 81&#10;-102 137 -194 191 -79 47 -226 102 -322 120 -125 23 -125 23 -47 53 145 56&#10;343 194 436 303 59 69 98 147 98 196 0 77 -117 201 -225 239 -77 27 -270 23&#10;-465 -11 -139 -24 -500 -98 -541 -112 -12 -3 -23 8 -39 40 -22 47 -113 136&#10;-164 163 -46 24 -180 27 -244 6z m238 -61 c52 -32 110 -102 110 -132 0 -33 7&#10;-30 -130 -56 -185 -34 -247 -38 -296 -19 -55 21 -61 33 -38 77 61 118 141 161&#10;279 149 28 -2 61 -11 75 -19z m1087 -130 c34 -6 77 -18 95 -26 49 -23 106 -73&#10;124 -108 14 -27 14 -32 -2 -56 -104 -161 -428 -396 -622 -451 -121 -35 -147&#10;-45 -184 -68 -37 -23 -65 -59 -54 -71 4 -3 133 -6 289 -6 l282 -1 61 -32 c194&#10;-101 253 -190 241 -356 -8 -94 -18 -113 -140 -242 -113 -122 -178 -168 -325&#10;-232 -282 -122 -359 -141 -690 -163 -162 -11 -224 -8 -336 16 -78 17 -110 36&#10;-161 98 l-36 44 90 179 c49 98 100 203 113 233 24 52 28 56 85 77 l61 21 4&#10;-23 c3 -13 1 -30 -3 -37 -14 -22 -10 -143 6 -189 39 -111 122 -174 221 -167&#10;50 3 76 28 30 28 -64 0 -146 56 -172 119 -26 63 -7 262 29 298 21 21 236 29&#10;363 14 207 -26 332 -60 360 -99 16 -22 54 -6 54 23 0 36 -51 80 -127 107 -123&#10;46 -175 53 -400 53 -117 0 -213 3 -213 6 0 24 131 273 184 349 17 25 37 57 45&#10;73 8 15 18 27 23 27 4 0 8 5 8 10 0 12 192 277 236 326 35 39 44 64 32 87 -19&#10;38 -68 15 -180 -86 -16 -13 -28 -27 -28 -31 0 -4 -11 -22 -24 -39 -13 -18 -36&#10;-54 -51 -82 -15 -27 -46 -79 -69 -115 -106 -165 -268 -468 -280 -526 -6 -27&#10;-13 -32 -58 -43 -28 -6 -53 -10 -55 -8 -1 2 3 17 11 33 134 274 266 701 266&#10;863 0 44 1 47 38 59 107 37 227 64 417 96 227 38 291 45 345 34 19 -3 63 -11&#10;97 -16z m-1350 -1324 c-50 -113 -113 -232 -125 -236 -17 -5 -15 91 3 134 21&#10;50 124 174 145 174 4 0 -6 -33 -23 -72z"/>
<path d="M14408 2705 c-4 -11 -10 -36 -13 -54 -12 -60 -252 -518 -340 -650&#10;-46 -70 -95 -140 -110 -156 -14 -17 -53 -64 -87 -105 -68 -82 -230 -235 -293&#10;-277 -22 -15 -42 -29 -45 -33 -25 -33 -265 -174 -470 -276 -297 -147 -535&#10;-231 -846 -299 -405 -88 -555 -136 -802 -258 -146 -73 -212 -134 -212 -197 0&#10;-33 26 -75 55 -88 29 -14 90 -15 120 -2 24 9 12 15 -50 24 -38 5 -75 34 -75&#10;60 0 17 41 60 85 88 53 35 201 62 330 61 121 -1 217 -24 355 -88 228 -104 350&#10;-105 490 -5 99 70 145 90 238 102 132 17 157 32 327 203 170 172 210 206 324&#10;274 268 161 491 379 665 648 151 234 350 726 370 913 6 62 -6 149 -16 115z&#10;m-72 -302 c-14 -37 -37 -99 -51 -138 -114 -309 -284 -617 -422 -763 -15 -16&#10;-49 -52 -74 -78 -101 -108 -262 -234 -404 -317 -156 -91 -398 -193 -561 -237&#10;-187 -51 -546 -120 -754 -146 -19 -3 -84 -11 -143 -19 -201 -28 -160 -13 128&#10;46 238 49 347 76 497 128 348 119 672 294 1018 551 321 238 601 599 750 967&#10;40 99 52 103 16 6z m-1279 -1616 c-172 -174 -186 -183 -326 -206 -100 -17&#10;-121 -25 -195 -69 -186 -111 -285 -111 -527 1 -92 42 -189 67 -289 76 -72 6&#10;-65 7 215 45 594 78 923 151 1175 257 36 15 68 28 72 28 4 1 -52 -59 -125&#10;-132z"/>
<path d="M3219 2191 c-95 -47 -183 -129 -235 -217 -41 -69 -74 -181 -74 -250&#10;0 -65 28 -173 55 -212 44 -61 203 -76 330 -30 195 71 377 171 413 227 9 14 22&#10;32 29 39 7 8 11 18 7 23 -5 9 -44 -15 -149 -97 -92 -72 -227 -126 -358 -144&#10;-87 -13 -140 -4 -169 27 -21 22 -23 34 -23 121 l0 97 45 13 c180 51 320 191&#10;320 320 0 35 -6 49 -29 73 -25 24 -37 29 -78 29 -26 -1 -64 -9 -84 -19z m102&#10;-61 c21 -12 24 -45 9 -101 -13 -48 -108 -138 -188 -178 -104 -53 -110 -41 -47&#10;95 41 89 82 136 147 168 60 30 54 29 79 16z"/>
<path d="M6965 2151 c-83 -20 -180 -85 -286 -191 -94 -93 -112 -117 -154 -202&#10;-37 -77 -47 -108 -48 -152 -2 -98 54 -143 137 -111 56 22 182 136 242 221 25&#10;35 50 64 55 64 9 0 14 -18 24 -89 15 -110 76 -180 171 -196 75 -12 179 32 290&#10;122 23 18 44 33 47 33 3 0 8 -13 12 -28 16 -73 81 -132 145 -132 39 0 153 50&#10;189 83 12 12 43 60 67 107 24 47 50 96 59 110 8 14 31 68 51 120 51 133 81&#10;170 150 182 13 2 18 -2 15 -12 -2 -8 -21 -73 -43 -144 -41 -140 -45 -175 -24&#10;-251 41 -155 127 -222 247 -191 142 37 200 66 272 135 l47 45 0 -33 c0 -47 39&#10;-120 73 -137 25 -14 34 -13 95 7 62 21 75 30 174 133 60 61 109 107 109 101 1&#10;-5 3 -28 4 -50 5 -121 59 -203 138 -212 39 -5 58 1 153 48 60 29 140 75 177&#10;102 68 49 88 55 68 20 -19 -33 -37 -98 -37 -133 1 -28 5 -36 24 -38 12 -2 22&#10;1 22 7 0 5 6 16 13 23 7 7 39 51 71 98 145 211 243 324 274 313 41 -15 42 -19&#10;42 -223 0 -109 3 -205 6 -214 18 -47 64 -3 179 171 97 147 132 193 145 193 4&#10;0 10 -51 12 -112 6 -131 20 -173 73 -213 46 -36 126 -45 173 -21 18 9 33 16&#10;34 15 15 -9 124 54 204 117 l41 33 -24 -60 c-35 -87 -40 -127 -18 -135 22 -9&#10;42 13 149 167 126 180 203 269 234 269 48 0 52 -18 52 -229 0 -167 2 -201 15&#10;-211 26 -22 62 15 163 166 106 159 139 204 151 204 5 0 10 -51 13 -114 4 -95&#10;9 -121 29 -157 28 -51 87 -89 139 -89 37 0 129 29 189 60 30 15 126 93 179&#10;147 7 7 14 13 15 13 1 0 2 -30 2 -67 0 -83 17 -127 55 -143 60 -25 169 39 303&#10;178 37 39 68 69 68 69 1 -1 3 -29 4 -63 4 -132 80 -211 193 -200 89 8 165 52&#10;292 168 127 115 146 136 137 144 -7 8 -47 -25 -150 -122 -89 -85 -158 -124&#10;-231 -131 -47 -5 -53 -3 -80 26 l-29 30 6 108 c6 118 23 176 97 324 23 44 38&#10;84 35 89 -3 5 -21 12 -41 16 -48 9 -68 -11 -119 -122 -112 -240 -282 -434&#10;-379 -434 -44 0 -36 75 29 265 30 88 55 166 55 173 0 8 -17 12 -53 12 l-53 0&#10;-31 -62 c-17 -35 -41 -91 -53 -126 -19 -51 -35 -74 -89 -125 -77 -72 -173&#10;-131 -249 -153 -69 -20 -83 -16 -107 31 -31 64 -31 153 0 313 16 77 25 147 22&#10;156 -11 29 -51 18 -93 -26 -42 -44 -78 -88 -104 -128 -8 -12 -22 -30 -30 -40&#10;-8 -10 -42 -57 -75 -105 l-60 -86 -5 114 c-4 86 -9 120 -23 140 -37 57 -117&#10;83 -170 56 -12 -6 -39 -27 -59 -47 -21 -20 -38 -32 -38 -28 0 5 9 47 21 93 28&#10;120 26 128 -35 126 -82 -3 -88 -9 -136 -161 -33 -101 -54 -148 -81 -181 -101&#10;-127 -237 -220 -330 -224 -41 -2 -45 0 -61 33 -25 48 -24 196 2 335 27 147 27&#10;155 -8 155 -44 0 -109 -74 -277 -315 l-60 -86 -3 106 c-3 119 -16 155 -72 193&#10;-36 24 -88 29 -123 11 -12 -6 -39 -27 -59 -47 -21 -20 -38 -34 -38 -32 0 3 7&#10;39 16 80 28 131 28 139 9 147 -10 3 -43 0 -73 -8 -53 -13 -56 -16 -70 -59 -7&#10;-25 -29 -90 -49 -144 -33 -92 -41 -105 -107 -171 -159 -160 -336 -240 -387&#10;-174 -45 59 -35 140 43 372 27 81 47 154 44 162 -7 18 -66 20 -89 3 -16 -12&#10;-78 -132 -107 -208 -12 -31 -52 -86 -157 -220 -56 -69 -96 -110 -109 -110 -8&#10;0 -14 -4 -14 -9 0 -5 -10 -11 -22 -15 -31 -8 -58 26 -58 71 0 62 31 187 71&#10;284 21 52 39 103 39 112 0 20 -65 35 -89 20 -22 -13 -95 -153 -128 -247 -25&#10;-71 -34 -83 -87 -127 -69 -56 -185 -115 -244 -125 -36 -6 -44 -3 -67 22 -14&#10;15 -33 52 -41 82 -23 77 -7 208 48 410 11 40 17 76 13 80 -12 12 -167 15 -205&#10;3 -54 -16 -75 -45 -139 -192 -100 -228 -177 -356 -232 -385 -28 -14 -33 -14&#10;-62 3 -32 19 -32 20 -37 111 -4 76 -8 94 -25 106 -42 32 -82 11 -119 -60 -26&#10;-54 -251 -164 -332 -164 -68 0 -104 76 -91 191 14 114 47 194 132 315 15 21&#10;-4 45 -55 72 -45 22 -97 27 -155 13z m5 -79 c0 -11 -9 -44 -19 -75 -11 -31&#10;-23 -78 -26 -104 -6 -42 -18 -67 -60 -122 -5 -7 -37 -43 -70 -78 -60 -64 -62&#10;-65 -115 -66 l-55 -2 -9 37 c-24 97 68 280 179 356 101 69 175 92 175 54z"/>
</g>
</svg>