<?xml version="1.0" standalone="no"?>
<!DOCTYPE svg PUBLIC "-//W3C//DTD SVG 20010904//EN"
 "http://www.w3.org/TR/2001/REC-SVG-20010904/DTD/svg10.dtd">
<svg version="1.0" xmlns="http://www.w3.org/2000/svg"
 width="900.000000pt" height="900.000000pt" viewBox="0 0 900.000000 900.000000"
 preserveAspectRatio="xMidYMid meet">
<metadata>
Created by potrace 1.14, written by Peter Selinger 2001-2017
</metadata>
<g transform="translate(0.000000,900.000000) scale(0.100000,-0.100000)"
fill="#000000" stroke="none">
<path d="M1079 5128 c0 -2 -1 -95 -2 -208 l-1 -205 157 -3 157 -3 0 81 0 80
380 0 380 0 0 -140 0 -140 161 0 161 0 -4 213 c-3 204 -5 214 -30 270 l-27 57
-665 0 c-367 0 -666 -1 -667 -2z"/>
<path d="M2624 5104 c-33 -50 -45 -127 -51 -321 l-6 -193 162 0 161 0 0 140 0
140 208 2 207 3 3 128 3 127 -335 0 -336 0 -16 -26z"/>
<path d="M3420 5000 l0 -130 185 0 185 0 0 130 0 130 -185 0 -185 0 0 -130z"/>
<path d="M7607 4773 c-11 -11 -8 -22 13 -43 16 -16 33 -20 86 -20 77 0 104 12
104 45 0 31 -29 34 -55 5 -10 -11 -30 -20 -45 -20 -15 0 -35 9 -45 20 -18 20
-46 26 -58 13z"/>
<path d="M1695 4706 c-44 -20 -75 -53 -97 -104 -55 -124 38 -266 172 -265 123
2 210 121 177 243 -28 108 -153 170 -252 126z"/>
<path d="M3117 4673 c-4 -3 -7 -75 -7 -160 l0 -153 150 0 c147 0 152 1 175 25
26 25 29 43 28 171 -1 71 -14 101 -49 114 -28 11 -287 14 -297 3z m254 -63
c16 -9 19 -22 19 -90 0 -97 -6 -102 -123 -98 l-82 3 0 85 c-1 47 1 91 3 98 5
15 154 17 183 2z"/>
<path d="M3564 4669 c-34 -17 -44 -53 -44 -157 1 -145 2 -146 173 -150 129 -3
135 -3 162 20 27 24 28 27 29 136 1 103 -1 113 -22 134 -21 21 -32 23 -150 25
-75 2 -136 -2 -148 -8z m227 -59 c16 -9 19 -22 19 -88 0 -47 -5 -83 -12 -90
-8 -8 -45 -12 -100 -12 -103 0 -108 5 -108 97 0 90 14 103 106 103 42 0 84 -5
95 -10z"/>
<path d="M3939 4648 c0 -18 -2 -90 -6 -160 l-5 -128 41 0 41 0 0 65 0 65 100
0 100 0 0 -65 0 -65 35 0 35 0 0 160 0 160 -35 0 -35 0 0 -60 0 -60 -100 0
-100 0 0 60 0 60 -35 0 c-33 0 -35 -2 -36 -32z"/>
<path d="M4377 4673 c-33 -9 -47 -56 -47 -161 0 -144 3 -146 160 -150 67 -2
132 -1 145 2 36 9 55 34 55 72 0 32 -2 34 -33 34 -24 0 -35 -6 -42 -22 -9 -21
-18 -23 -96 -26 -111 -4 -119 3 -119 98 0 91 9 100 106 100 79 0 114 -11 114
-35 0 -10 11 -15 34 -15 19 0 37 3 39 8 10 16 -19 77 -43 89 -24 12 -232 17
-273 6z"/>
<path d="M4750 4588 c0 -51 -3 -123 -7 -160 l-6 -68 42 0 41 0 0 130 0 131 98
-3 97 -3 3 -127 3 -128 34 0 35 0 0 160 0 160 -170 0 -170 0 0 -92z"/>
<path d="M5150 4530 c0 -82 0 -153 0 -157 0 -5 71 -8 157 -8 l158 0 0 25 0 25
-115 1 c-63 1 -118 2 -122 3 -5 1 -8 17 -8 36 l0 34 118 3 117 3 3 28 3 27
-120 0 -121 0 0 35 0 34 123 3 122 3 3 28 3 27 -160 0 -161 0 0 -150z"/>
<path d="M5520 4520 l0 -160 155 0 155 0 0 -41 c0 -39 1 -40 33 -37 l32 3 3
63 c3 58 1 64 -18 69 -21 6 -22 10 -18 132 l3 126 -35 0 -35 0 -3 -127 -3
-128 -99 0 -100 0 0 130 0 130 -35 0 -35 0 0 -160z"/>
<path d="M5992 4670 c-33 -14 -42 -49 -42 -161 0 -93 2 -102 25 -124 23 -24
30 -25 150 -25 158 0 185 11 185 78 0 30 -2 32 -33 32 -24 0 -35 -6 -42 -22
-9 -21 -18 -23 -98 -26 -57 -2 -94 1 -103 9 -18 15 -20 159 -2 177 15 15 161
16 189 2 10 -6 19 -17 19 -25 0 -10 11 -15 34 -15 19 0 37 3 39 8 10 16 -19
77 -43 89 -29 15 -242 17 -278 3z"/>
<path d="M6360 4650 l0 -30 65 0 65 0 0 -130 0 -130 35 0 34 0 3 128 3 127 68
3 c68 3 68 3 65 30 l-3 27 -167 3 -168 2 0 -30z"/>
<path d="M6730 4521 l0 -161 35 0 c35 0 35 0 35 44 l0 43 101 5 c84 4 104 8
121 25 38 39 40 145 4 182 -14 13 -43 17 -156 19 l-140 4 0 -161z m239 85 c7
-8 11 -30 9 -48 l-3 -33 -87 -3 -88 -3 0 44 c0 24 3 47 7 50 13 14 150 8 162
-7z"/>
<path d="M7143 4670 c-33 -14 -43 -43 -47 -133 -6 -164 8 -177 186 -177 124 0
130 1 153 25 24 23 25 31 25 133 0 156 0 156 -167 159 -70 2 -138 -2 -150 -7z
m231 -66 c20 -19 23 -153 4 -172 -7 -7 -44 -12 -98 -12 -54 0 -91 5 -98 12 -7
7 -12 41 -12 84 0 96 8 104 110 104 58 0 83 -4 94 -16z"/>
<path d="M7520 4520 l0 -160 63 0 63 0 87 119 c48 65 94 124 102 131 13 11 15
-4 15 -119 l0 -131 35 0 35 0 0 160 0 160 -62 0 -63 -1 -95 -129 c-52 -71 -98
-130 -102 -130 -5 0 -8 59 -8 130 l0 130 -35 0 -35 0 0 -160z"/>
<path d="M2157 4463 c-4 -3 -7 -69 -7 -145 l0 -138 -377 2 -378 3 -3 93 -3 92
-154 0 c-117 0 -155 -3 -156 -12 -1 -16 -1 -490 0 -501 1 -5 274 -7 609 -5
l607 3 47 23 c27 13 57 37 68 52 46 65 53 104 58 328 l4 212 -154 0 c-85 0
-158 -3 -161 -7z"/>
<path d="M2575 4460 c-3 -5 -5 -72 -4 -147 4 -306 31 -390 144 -440 34 -15 80
-18 318 -21 l277 -4 0 166 0 166 -207 2 -208 3 -3 143 -3 142 -154 0 c-90 0
-156 -4 -160 -10z"/>
<path d="M3420 4015 l0 -165 2253 2 2252 3 0 160 0 160 -2252 3 -2253 2 0
-165z"/>
</g>
</svg>
