<svg width="58" height="22" viewBox="0 0 58 22" fill="none" xmlns="http://www.w3.org/2000/svg">
<path d="M7.22809 21.008C9.80409 21.008 11.9041 19.608 12.9401 17.564V20.728H14.5921V13.896C14.5921 9.92004 11.4561 6.84004 7.45209 6.84004C3.39209 6.84004 0.340088 10.032 0.340088 13.896C0.340088 17.816 3.30809 21.008 7.22809 21.008ZM7.45209 19.356C4.45609 19.356 2.07609 16.892 2.07609 13.924C2.07609 10.956 4.45609 8.49204 7.45209 8.49204C10.4761 8.49204 12.8561 10.956 12.8561 13.924C12.8561 16.892 10.4761 19.356 7.45209 19.356Z" fill="#DAC5A7"/>
<path d="M21.8022 20.728V12.44C21.8022 10.116 23.0902 8.63204 25.1622 8.63204C25.9462 8.63204 26.7022 8.82804 27.3742 9.22004V7.45604C26.6742 7.12004 25.8622 6.95204 25.0222 6.95204C21.8862 6.95204 20.0662 9.19204 20.0662 12.356V20.728H21.8022Z" fill="#DAC5A7"/>
<path d="M31.709 3.87204C32.409 3.87204 32.941 3.31204 32.941 2.58404C32.941 1.85604 32.409 1.29604 31.709 1.29604C31.009 1.29604 30.449 1.85604 30.449 2.58404C30.449 3.31204 31.009 3.87204 31.709 3.87204ZM30.841 7.14804V20.728H32.577V7.14804H30.841Z" fill="#DAC5A7"/>
<path d="M40.7137 20.728V14.652H42.7017C42.8417 15.072 43.0657 15.492 43.4297 15.856L48.2737 20.728H50.5417L44.6337 14.764C44.3537 14.484 44.1857 14.204 44.1857 13.924C44.1857 13.616 44.3537 13.364 44.6337 13.084L50.5697 7.14804H48.3857L43.4857 12.048C43.1497 12.384 42.8977 12.748 42.7577 13.112H40.7137V0.876038H38.9777V20.728H40.7137Z" fill="#DAC5A7"/>
<path d="M56.1576 20.952C56.8576 20.952 57.4176 20.392 57.4176 19.664C57.4176 18.964 56.8576 18.432 56.1576 18.432C55.4576 18.432 54.8976 18.964 54.8976 19.664C54.8976 20.392 55.4576 20.952 56.1576 20.952Z" fill="#DAC5A7"/>
</svg>
